HIERARCHY
ROOT hip
{
  OFFSET 0.00112043 5.09927 -9.65472
  CHANNELS 6 Xposition Yposition Zposition Zrotation Xrotation Yrotation
  JOINT abdomen
  {
    OFFSET 0 -1.186 -1.5018
    CHANNELS 3 Zrotation Xrotation Yrotation
    JOINT abdomen2
    {
      OFFSET 0 9.964 0.2134
      CHANNELS 3 Zrotation Xrotation Yrotation
      JOINT chest
      {
        OFFSET 0 13.134 -3.2573
        CHANNELS 3 Zrotation Xrotation Yrotation
        JOINT neck
        {
          OFFSET 0 20.686 -1.6905
          CHANNELS 3 Zrotation Xrotation Yrotation
          JOINT head
          {
            OFFSET 0 7.238 -0.1237
            CHANNELS 3 Zrotation Xrotation Yrotation
            End Site
            {
              OFFSET 0 0 0
            }
          }
        }
        JOINT lCollar
        {
          OFFSET 1.7069 20.075 5.0056
          CHANNELS 3 Zrotation Xrotation Yrotation
          JOINT lShldr
          {
            OFFSET 13.6458 -0.047 -4.849
            CHANNELS 3 Zrotation Xrotation Yrotation
            JOINT lForeArm
            {
              OFFSET 28.3255 -0.9759 2.2888
              CHANNELS 3 Zrotation Xrotation Yrotation
              JOINT lHand
              {
                OFFSET 22.1583 -0.53 10.8316
                CHANNELS 3 Zrotation Xrotation Yrotation
                JOINT lThumb1
                {
                  OFFSET 0.786 0.112 2.5817
                  CHANNELS 3 Zrotation Xrotation Yrotation
                  JOINT lThumb2
                  {
                    OFFSET 0.3601 -0.878 4.2331
                    CHANNELS 3 Zrotation Xrotation Yrotation
                    JOINT lThumb2_End
                    {
                      OFFSET 1.8127 -1.216 2.2227
                      CHANNELS 3 Zrotation Xrotation Yrotation
                      End Site
                      {
                        OFFSET 0.0181 -0.0122 0.0222
                      }
                    }
                  }
                }
                JOINT lCarpal1
                {
                  OFFSET 0.9571 1.114 1.7695
                  CHANNELS 3 Zrotation Xrotation Yrotation
                  JOINT lIndex1
                  {
                    OFFSET 4.1246 0.487 4.1451
                    CHANNELS 3 Zrotation Xrotation Yrotation
                    JOINT lIndex2
                    {
                      OFFSET 3.4052 -1.454 2.7682
                      CHANNELS 3 Zrotation Xrotation Yrotation
                      JOINT lIndex2_End
                      {
                        OFFSET 1.4531 -1.795 1.2713
                        CHANNELS 3 Zrotation Xrotation Yrotation
                        End Site
                        {
                          OFFSET 0.0145 -0.0179 0.0127
                        }
                      }
                    }
                  }
                  JOINT lMid1
                  {
                    OFFSET 5.6954 0.21 2.1184
                    CHANNELS 3 Zrotation Xrotation Yrotation
                    JOINT lMid2
                    {
                      OFFSET 3.9766 -1.54 2.3863
                      CHANNELS 3 Zrotation Xrotation Yrotation
                      JOINT lMid2_End
                      {
                        OFFSET 1.4042 -1.926 1.125
                        CHANNELS 3 Zrotation Xrotation Yrotation
                        End Site
                        {
                          OFFSET 0.014 -0.0193 0.0113
                        }
                      }
                    }
                  }
                }
                JOINT lCarpal2
                {
                  OFFSET 2.0956 0.66 -0.3894
                  CHANNELS 3 Zrotation Xrotation Yrotation
                  JOINT lRing1
                  {
                    OFFSET 5.0395 -0.09 2.4971
                    CHANNELS 3 Zrotation Xrotation Yrotation
                    JOINT lRing2
                    {
                      OFFSET 3.7921 -1.552 1.4806
                      CHANNELS 3 Zrotation Xrotation Yrotation
                      JOINT lRing2_End
                      {
                        OFFSET 1.4655 -1.808 0.9609
                        CHANNELS 3 Zrotation Xrotation Yrotation
                        End Site
                        {
                          OFFSET 0.0147 -0.0181 0.0096
                        }
                      }
                    }
                  }
                  JOINT lPinky1
                  {
                    OFFSET 4.9141 -1.269 0.3591
                    CHANNELS 3 Zrotation Xrotation Yrotation
                    JOINT lPinky2
                    {
                      OFFSET 3.1477 -1.685 0.8462
                      CHANNELS 3 Zrotation Xrotation Yrotation
                      JOINT lPinky2_End
                      {
                        OFFSET 0.8055 -1.585 0.7955
                        CHANNELS 3 Zrotation Xrotation Yrotation
                        End Site
                        {
                          OFFSET 0.0081 -0.0158 0.008
                        }
                      }
                    }
                  }
                }
              }
            }
          }
        }
        JOINT rCollar
        {
          OFFSET -1.7069 20.075 5.0056
          CHANNELS 3 Zrotation Xrotation Yrotation
          JOINT rShldr
          {
            OFFSET -13.6458 -0.047 -4.849
            CHANNELS 3 Zrotation Xrotation Yrotation
            JOINT rForeArm
            {
              OFFSET -28.3255 -0.9759 2.2888
              CHANNELS 3 Zrotation Xrotation Yrotation
              JOINT rHand
              {
                OFFSET -22.1583 -0.53 10.8316
                CHANNELS 3 Zrotation Xrotation Yrotation
                JOINT rThumb1
                {
                  OFFSET -0.786 0.112 2.5817
                  CHANNELS 3 Zrotation Xrotation Yrotation
                  JOINT rThumb2
                  {
                    OFFSET -0.3601 -0.878 4.2331
                    CHANNELS 3 Zrotation Xrotation Yrotation
                    JOINT rThumb2_End
                    {
                      OFFSET -1.8127 -1.216 2.2227
                      CHANNELS 3 Zrotation Xrotation Yrotation
                      End Site
                      {
                        OFFSET -0.0181 -0.0122 0.0222
                      }
                    }
                  }
                }
                JOINT rCarpal1
                {
                  OFFSET -0.9571 1.114 1.7695
                  CHANNELS 3 Zrotation Xrotation Yrotation
                  JOINT rIndex1
                  {
                    OFFSET -4.1246 0.487 4.1451
                    CHANNELS 3 Zrotation Xrotation Yrotation
                    JOINT rIndex2
                    {
                      OFFSET -3.4052 -1.454 2.7682
                      CHANNELS 3 Zrotation Xrotation Yrotation
                      JOINT rIndex2_End
                      {
                        OFFSET -1.4531 -1.795 1.2713
                        CHANNELS 3 Zrotation Xrotation Yrotation
                        End Site
                        {
                          OFFSET -0.0145 -0.018 0.0127
                        }
                      }
                    }
                  }
                  JOINT rMid1
                  {
                    OFFSET -5.6954 0.21 2.1184
                    CHANNELS 3 Zrotation Xrotation Yrotation
                    JOINT rMid2
                    {
                      OFFSET -3.9766 -1.54 2.3863
                      CHANNELS 3 Zrotation Xrotation Yrotation
                      JOINT rMid2_End
                      {
                        OFFSET -1.4042 -1.926 1.125
                        CHANNELS 3 Zrotation Xrotation Yrotation
                        End Site
                        {
                          OFFSET -0.014 -0.0193 0.0113
                        }
                      }
                    }
                  }
                }
                JOINT rCarpal2
                {
                  OFFSET -2.0956 0.66 -0.3894
                  CHANNELS 3 Zrotation Xrotation Yrotation
                  JOINT rRing1
                  {
                    OFFSET -5.0395 -0.09 2.4971
                    CHANNELS 3 Zrotation Xrotation Yrotation
                    JOINT rRing2
                    {
                      OFFSET -3.7921 -1.552 1.4806
                      CHANNELS 3 Zrotation Xrotation Yrotation
                      JOINT rRing2_End
                      {
                        OFFSET -1.4655 -1.808 0.9609
                        CHANNELS 3 Zrotation Xrotation Yrotation
                        End Site
                        {
                          OFFSET -0.0147 -0.0181 0.0096
                        }
                      }
                    }
                  }
                  JOINT rPinky1
                  {
                    OFFSET -4.9141 -1.269 0.3592
                    CHANNELS 3 Zrotation Xrotation Yrotation
                    JOINT rPinky2
                    {
                      OFFSET -3.1477 -1.685 0.8462
                      CHANNELS 3 Zrotation Xrotation Yrotation
                      JOINT rPinky2_End
                      {
                        OFFSET -0.8055 -1.585 0.7955
                        CHANNELS 3 Zrotation Xrotation Yrotation
                        End Site
                        {
                          OFFSET -0.0081 -0.0158 0.008
                        }
                      }
                    }
                  }
                }
              }
            }
          }
        }
      }
    }
  }
  JOINT lThigh
  {
    OFFSET 8.367 -8.2066 0.5982
    CHANNELS 3 Zrotation Xrotation Yrotation
    JOINT lShin
    {
      OFFSET 2.1923 -43.463 -0.4932
      CHANNELS 3 Zrotation Xrotation Yrotation
      JOINT lFoot
      {
        OFFSET 0.7333 -45.8593 -2.6451
        CHANNELS 3 Zrotation Xrotation Yrotation
        End Site
        {
          OFFSET 2.6618 -4.2699 12.3931
        }
      }
    }
  }
  JOINT rThigh
  {
    OFFSET -8.367 -8.2066 0.5982
    CHANNELS 3 Zrotation Xrotation Yrotation
    JOINT rShin
    {
      OFFSET -2.1923 -43.463 -0.4931
      CHANNELS 3 Zrotation Xrotation Yrotation
      JOINT rFoot
      {
        OFFSET -0.7333 -45.8593 -2.6451
        CHANNELS 3 Zrotation Xrotation Yrotation
        End Site
        {
          OFFSET -2.6618 -4.2699 12.3931
        }
      }
    }
  }
}
MOTION
Frames:	4
Frame Time:	0.0333333
-0.00951461 -0.630206 -70.7672 -180 -89.9981 -180 -0.100517 13.517 -0.0999239 -0.184018 27.0341 -0.182621 -0.184018 27.0341 -0.182622 14.167 27.4505 -6.62993 17.4871 -5.73409 -2.8463 7.96465 -11.6281 3.84823 -73.9538 -14.0542 9.15264 -18.6617 7.52807 -76.8376 -17.2808 23.6308 16.0227 3.97569e-016 3.40419e-015 -3.97569e-016 1.98785e-016 2.23633e-016 -0 -3.44836e-033 2.48481e-016 7.95139e-016 1.98785e-016 6.57232e-015 -1.19271e-015 3.57812e-015 -1.23868e-014 1.59028e-015 -1.98785e-016 2.98177e-016 3.97569e-016 1.98785e-016 3.47873e-015 -0 3.57812e-015 -1.23868e-014 1.59028e-015 -1.98785e-016 2.98177e-016 3.97569e-016 1.98785e-016 3.47873e-015 -0 1.98785e-016 6.57232e-015 -1.19271e-015 3.57812e-015 -1.23868e-014 1.59028e-015 -1.98785e-016 2.98177e-016 3.97569e-016 1.98785e-016 3.47873e-015 -0 3.57812e-015 -1.23868e-014 1.59028e-015 -1.98785e-016 2.98177e-016 3.97569e-016 1.98785e-016 3.47873e-015 -0 -7.89138 -11.7561 -4.67484 77.9723 0.531965 -35.7247 -33.6481 4.3289 62.6597 -4.94487 21.2189 3.8812 -3.74458e-006 8.4875e-008 5.07442e-007 2.05936e-006 8.36188e-007 -2.27304e-007 -2.06801e-006 -3.27777e-007 3.33132e-007 3.97569e-016 -7.95139e-016 -3.18055e-015 -3.74458e-006 8.4875e-008 5.07442e-007 2.05936e-006 8.36188e-007 -2.27304e-007 -2.06801e-006 -3.27777e-007 3.33132e-007 -3.74458e-006 8.4875e-008 5.07442e-007 2.05936e-006 8.36188e-007 -2.27304e-007 -2.06801e-006 -3.27777e-007 3.33132e-007 3.97569e-016 -7.95139e-016 -3.18055e-015 -3.74458e-006 8.4875e-008 5.07442e-007 2.05936e-006 8.36188e-007 -2.27304e-007 -2.06801e-006 -3.27777e-007 3.33132e-007 -3.74458e-006 8.4875e-008 5.07442e-007 2.05936e-006 8.36188e-007 -2.27304e-007 -2.06801e-006 -3.27777e-007 3.33132e-007 12.9726 0.138465 1.57796 -1.29852 5.23963 1.05846 12.1752 17.7255 -0.532942 -12.8239 0.486656 -1.57664 1.3093 5.21285 -1.06922 -12.1772 17.6974 0.527098 
-0.0100402 -0.629497 -70.7672 -180 -89.9981 -180 -0.100484 13.5107 -0.0999557 -0.183947 27.0215 -0.182702 -0.183947 27.0215 -0.182702 14.1458 27.4862 -6.62789 17.7611 -5.64374 -2.9054 7.96465 -11.6281 3.84823 -73.9538 -14.0542 9.15265 -18.6616 7.52807 -76.8376 -17.2808 23.6308 16.0227 1.98785e-016 -1.22998e-015 1.19271e-015 3.97569e-016 -1.25483e-015 1.19271e-015 3.97569e-016 -1.27968e-015 7.95139e-016 1.98785e-016 -4.41053e-015 1.19271e-015 3.18055e-015 -2.02512e-014 3.18055e-015 -3.56044e-032 5.13113e-015 3.97569e-016 3.56906e-032 5.14355e-015 -3.97569e-016 3.18055e-015 -2.02512e-014 3.18055e-015 -3.56044e-032 5.13113e-015 3.97569e-016 3.56906e-032 5.14355e-015 -3.97569e-016 1.98785e-016 -4.41053e-015 1.19271e-015 3.18055e-015 -2.02512e-014 3.18055e-015 -3.56044e-032 5.13113e-015 3.97569e-016 3.56906e-032 5.14355e-015 -3.97569e-016 3.18055e-015 -2.02512e-014 3.18055e-015 -3.56044e-032 5.13113e-015 3.97569e-016 3.56906e-032 5.14355e-015 -3.97569e-016 -7.89138 -11.7561 -4.67483 77.9927 0.523172 -35.7287 -33.6481 4.32893 62.6597 -4.96236 21.1888 3.88539 -1.06352e-006 -4.14993e-008 -1.23338e-005 -5.1684e-015 5.1684e-015 9.54166e-015 3.80895e-007 1.24451e-006 -5.18624e-008 -1.76556e-031 -3.18055e-015 -3.18055e-015 -1.06352e-006 -4.14993e-008 -1.23338e-005 -7.95139e-016 4.77083e-015 -6.36111e-015 3.80895e-007 1.24451e-006 -5.18624e-008 -1.06352e-006 -4.14993e-008 -1.23338e-005 -7.95139e-016 4.77083e-015 -6.36111e-015 3.80895e-007 1.24451e-006 -5.18624e-008 -1.76556e-031 -3.18055e-015 -3.18055e-015 -1.06352e-006 -4.14993e-008 -1.23338e-005 -7.95139e-016 4.77083e-015 -6.36111e-015 3.80895e-007 1.24451e-006 -5.18624e-008 -1.06352e-006 -4.14993e-008 -1.23338e-005 -7.95139e-016 4.77083e-015 -6.36111e-015 3.80895e-007 1.24451e-006 -5.18624e-008 12.9758 0.155527 1.57952 -1.29242 5.24299 1.05669 12.1761 17.7356 -0.534065 -12.8221 0.480341 -1.57587 1.31283 5.21043 -1.07023 -12.1768 17.6915 0.526481 
-0.0105672 -0.628787 -70.7671 -180 -89.9981 -180 -0.100452 13.5044 -0.0999877 -0.183876 27.0089 -0.182783 -0.183875 27.009 -0.182783 14.125 27.522 -6.62595 18.0351 -5.55369 -2.96491 7.96465 -11.6281 3.84823 -73.9537 -14.0542 9.15266 -18.6617 7.52806 -76.8376 -17.2808 23.6308 16.0227 -3.00708e-006 7.27239e-007 -9.71583e-006 2.53508e-006 -1.36844e-006 4.23751e-006 1.98785e-016 -3.36692e-015 -0 3.97569e-016 2.41026e-015 -1.19271e-015 -3.00708e-006 7.27239e-007 -9.71583e-006 2.53508e-006 -1.36844e-006 4.23751e-006 -1.98785e-016 -3.35449e-015 -7.95139e-016 -3.00708e-006 7.27239e-007 -9.71583e-006 2.53508e-006 -1.36844e-006 4.23751e-006 -1.98785e-016 -3.35449e-015 -7.95139e-016 3.97569e-016 2.41026e-015 -1.19271e-015 -3.00708e-006 7.27239e-007 -9.71583e-006 2.53508e-006 -1.36844e-006 4.23751e-006 -1.98785e-016 -3.35449e-015 -7.95139e-016 -3.00708e-006 7.27239e-007 -9.71583e-006 2.53508e-006 -1.36844e-006 4.23751e-006 -1.98785e-016 -3.35449e-015 -7.95139e-016 -7.89138 -11.7561 -4.67483 78.013 0.514395 -35.7327 -33.6481 4.32894 62.6597 -4.97985 21.1588 3.88959 4.41887e-008 -2.56044e-006 -1.24878e-005 1.98785e-015 5.56597e-015 -0 -4.41892e-008 2.56044e-006 1.24878e-005 -3.97569e-016 3.97569e-016 3.18055e-015 4.41887e-008 -2.56044e-006 -1.24878e-005 1.98785e-015 -3.18055e-015 -3.18055e-015 -4.41892e-008 2.56044e-006 1.24878e-005 4.41887e-008 -2.56044e-006 -1.24878e-005 1.98785e-015 -3.18055e-015 -3.18055e-015 -4.41892e-008 2.56044e-006 1.24878e-005 -3.97569e-016 3.97569e-016 3.18055e-015 4.41887e-008 -2.56044e-006 -1.24878e-005 1.98785e-015 -3.18055e-015 -3.18055e-015 -4.41892e-008 2.56044e-006 1.24878e-005 4.41887e-008 -2.56044e-006 -1.24878e-005 1.98785e-015 -3.18055e-015 -3.18055e-015 -4.41892e-008 2.56044e-006 1.24878e-005 12.979 0.172505 1.58107 -1.2863 5.24652 1.05492 12.177 17.7457 -0.535178 -12.8203 0.473637 -1.57509 1.31637 5.20876 -1.07128 -12.1764 17.6853 0.525812 
-0.0110935 -0.628075 -70.7671 -180 -89.9981 -180 -0.100419 13.4981 -0.10002 -0.183804 26.9964 -0.182865 -0.183804 26.9964 -0.182865 14.1039 27.558 -6.62391 18.3091 -5.46396 -3.02484 7.96466 -11.6281 3.84823 -73.9538 -14.0542 9.15265 -18.6617 7.52805 -76.8376 -17.2807 23.6308 16.0227 -5.20703e-032 3.75206e-015 7.95139e-016 1.98785e-016 6.90777e-015 1.19271e-015 1.98785e-016 5.2181e-016 3.97569e-016 0 5.59082e-016 -0 2.98177e-015 -8.89561e-015 2.38542e-015 1.98785e-016 5.8393e-016 7.95139e-016 1.98785e-016 3.75206e-015 7.95139e-016 2.98177e-015 -8.89561e-015 2.38542e-015 1.98785e-016 5.8393e-016 7.95139e-016 1.98785e-016 3.75206e-015 7.95139e-016 0 5.59082e-016 -0 2.98177e-015 -8.89561e-015 2.38542e-015 1.98785e-016 5.8393e-016 7.95139e-016 1.98785e-016 3.75206e-015 7.95139e-016 2.98177e-015 -8.89561e-015 2.38542e-015 1.98785e-016 5.8393e-016 7.95139e-016 1.98785e-016 3.75206e-015 7.95139e-016 -7.89138 -11.7561 -4.67483 78.0334 0.5056 -35.7367 -33.6481 4.32895 62.6597 -4.99733 21.1287 3.89377 -7.95139e-016 5.56597e-015 -0 -3.97569e-016 1.98785e-015 -0 -8.82781e-032 -3.97569e-016 -1.27222e-014 7.95139e-016 5.1684e-015 -3.18055e-015 -7.95139e-016 5.56597e-015 1.90833e-014 1.59028e-015 4.37326e-015 3.18055e-015 -1.98785e-015 5.1684e-015 -6.36111e-015 -7.95139e-016 5.56597e-015 1.90833e-014 1.59028e-015 4.37326e-015 3.18055e-015 -1.98785e-015 5.1684e-015 -6.36111e-015 7.95139e-016 5.1684e-015 -3.18055e-015 -7.95139e-016 5.56597e-015 1.90833e-014 1.59028e-015 4.37326e-015 3.18055e-015 -1.98785e-015 5.1684e-015 -6.36111e-015 -7.95139e-016 5.56597e-015 1.90833e-014 1.59028e-015 4.37326e-015 3.18055e-015 -1.98785e-015 5.1684e-015 -6.36111e-015 12.9822 0.189287 1.58261 -1.28016 5.25032 1.05319 12.1779 17.7556 -0.536273 -12.8184 0.467215 -1.57431 1.31994 5.20664 -1.07231 -12.176 17.6792 0.52518 
